<?xml version="1.0" standalone="no"?>
<!DOCTYPE svg PUBLIC "-//W3C//DTD SVG 20010904//EN"
 "http://www.w3.org/TR/2001/REC-SVG-20010904/DTD/svg10.dtd">
<svg version="1.0" xmlns="http://www.w3.org/2000/svg"
 width="800.000000pt" height="547.000000pt" viewBox="0 0 800.000000 547.000000"
 preserveAspectRatio="xMidYMid meet">

<g transform="translate(0.000000,547.000000) scale(0.100000,-0.100000)"
fill="#000000" stroke="none">
<path d="M337 5403 c-3 -4 65 -7 150 -5 100 2 160 -1 166 -7 8 -8 -38 -11
-151 -11 -89 0 -162 -3 -162 -7 -2 -29 -13 -142 -21 -213 -5 -47 -12 -132 -15
-190 -4 -93 -12 -239 -28 -490 -2 -41 -7 -133 -10 -205 -3 -71 -8 -157 -11
-190 -7 -86 -14 -196 -20 -305 -17 -327 -27 -475 -35 -550 -13 -113 -11 -115
123 -115 56 -1 110 -5 120 -9 9 -4 29 -5 43 -2 15 4 32 2 40 -5 11 -9 20 -9
38 0 26 14 59 12 54 -4 -2 -5 -15 -9 -30 -7 l-28 3 0 -75 c0 -92 6 -112 28
-94 13 11 15 10 9 -5 -4 -10 -7 -21 -7 -23 0 -3 -6 -2 -12 2 -9 5 -9 3 1 -9
11 -14 11 -18 -4 -23 -13 -5 -14 -9 -3 -15 11 -7 11 -9 -1 -9 -7 0 -11 -6 -7
-15 3 -9 0 -15 -8 -15 -8 0 -12 9 -11 25 2 14 -1 23 -6 19 -5 -3 -9 -16 -9
-30 0 -15 -6 -24 -15 -24 -17 0 -21 -26 -5 -32 7 -2 8 -24 4 -61 l-7 -57 -38
0 c-22 0 -39 -4 -39 -10 0 -15 -197 -13 -203 3 -4 9 -8 9 -15 -2 -7 -9 -20
-12 -40 -8 l-29 6 -1 -72 c0 -40 -5 -144 -12 -232 -6 -88 -13 -245 -15 -350
-2 -104 -6 -217 -9 -250 -6 -59 -31 -413 -42 -590 -8 -130 -12 -190 -19 -275
-17 -222 -35 -479 -35 -506 0 -31 1 -32 58 -37 31 -4 100 -7 152 -8 l95 -2 1
29 c1 16 5 63 8 104 15 181 25 353 22 359 -2 3 0 42 4 87 5 44 11 132 15 195
3 63 8 134 10 159 3 25 7 89 10 143 2 55 7 118 9 140 3 23 8 89 11 147 4 58
11 143 16 190 26 243 30 296 32 422 1 76 5 138 10 138 4 0 7 29 7 65 l0 65 70
0 c66 0 70 -1 70 -22 0 -13 -7 -135 -15 -273 -8 -137 -17 -339 -20 -448 -3
-110 -7 -209 -10 -220 -4 -20 -11 -115 -20 -292 -2 -33 -6 -87 -9 -120 -4 -33
-13 -161 -21 -285 -25 -383 -35 -514 -41 -551 -5 -35 -4 -37 28 -42 18 -2 85
-5 148 -6 65 -1 120 -7 128 -13 10 -9 12 -3 11 28 -1 37 4 128 16 279 4 39 8
102 10 140 2 39 7 111 10 160 3 50 8 128 11 175 2 47 6 119 9 160 12 168 16
228 20 290 2 36 7 99 10 140 3 41 7 107 10 145 12 166 14 185 19 202 3 10 8
51 11 92 4 55 2 77 -7 83 -10 6 -10 10 -1 16 6 4 14 35 16 68 2 34 6 65 9 70
3 5 4 27 2 49 -1 22 1 60 6 84 4 24 4 56 0 71 -4 15 -3 34 2 44 11 20 -6 46
-31 45 -12 0 -11 -2 4 -9 17 -7 14 -9 -13 -9 -20 -1 -31 3 -27 9 3 5 -1 10
-10 10 -10 0 -13 -5 -9 -11 5 -9 -20 -10 -97 -5 -76 4 -105 10 -112 21 -4 8
-14 15 -21 15 -19 0 -24 29 -16 85 4 26 5 56 2 67 -6 23 3 23 36 -1 32 -22 85
-30 204 -32 48 -1 98 -7 111 -14 34 -17 224 -30 241 -16 10 8 17 7 26 -4 7 -8
23 -15 36 -15 14 0 24 -6 24 -14 0 -30 18 -25 34 9 l17 35 69 0 c60 0 70 -3
71 -17 1 -10 3 -29 4 -43 2 -16 -5 -30 -18 -39 -20 -14 -19 -15 19 -28 34 -11
21 -12 -112 -7 -160 5 -179 1 -173 -43 1 -10 -1 -61 -4 -113 -12 -159 -19
-300 -33 -675 -9 -240 -19 -419 -28 -525 -1 -19 2 -41 7 -47 6 -9 6 -13 -1
-13 -5 0 -10 -26 -11 -58 0 -31 -3 -82 -6 -112 -2 -30 -7 -95 -10 -143 -2 -49
-7 -92 -10 -97 -3 -4 1 -11 7 -13 9 -4 10 -8 2 -14 -5 -4 -11 -48 -13 -98 -1
-49 -4 -92 -6 -96 -2 -3 -7 -75 -11 -161 l-6 -155 48 -6 c27 -3 103 -5 169 -5
l120 1 -115 7 c-63 4 -136 8 -162 9 -27 0 -48 6 -48 11 0 7 55 8 158 4 l157
-7 2 84 c0 46 8 190 18 319 9 129 15 251 14 270 -2 20 0 40 3 45 3 6 6 44 7
85 1 41 4 89 6 105 3 17 9 116 15 220 5 105 12 228 15 275 3 47 7 121 10 165
2 44 7 96 9 115 3 19 8 76 11 125 3 50 8 125 11 167 5 63 4 78 -7 78 -10 0
-11 2 -2 8 16 10 29 152 14 152 -6 0 -5 7 4 18 12 14 28 16 85 14 l70 -4 -6
-106 c-3 -59 -8 -143 -10 -187 -2 -44 -6 -105 -8 -135 -3 -30 -8 -118 -11
-195 -3 -77 -7 -151 -10 -165 -2 -14 -7 -95 -10 -180 -4 -85 -8 -162 -10 -170
-2 -8 -7 -91 -11 -185 -4 -93 -8 -183 -9 -200 -2 -16 -6 -84 -9 -150 -4 -66
-13 -214 -20 -329 -8 -114 -13 -216 -12 -225 2 -13 23 -17 137 -23 74 -4 146
-9 162 -11 19 -2 27 1 28 12 0 9 2 43 4 76 8 140 25 460 31 580 3 72 8 133 11
137 2 5 -1 8 -8 8 -8 0 -8 4 -2 13 6 6 11 44 12 82 1 39 4 88 6 110 1 22 6
103 10 180 4 77 11 187 14 245 4 58 7 138 7 177 -1 40 2 74 5 75 3 2 9 75 13
163 6 136 10 216 20 395 1 14 5 31 10 38 12 19 -1 27 -40 23 -19 -1 -34 2 -34
8 0 6 12 11 27 11 14 0 23 3 20 7 -4 3 -20 6 -37 5 -16 0 -32 3 -35 8 -6 10
-45 1 -45 -11 0 -5 14 -9 30 -9 17 0 30 -4 30 -8 0 -11 -193 -2 -205 9 -5 5
21 10 65 10 41 1 64 4 50 6 -14 2 -32 7 -40 10 -8 4 -39 7 -67 8 -29 1 -55 4
-59 7 -3 4 -8 34 -11 69 l-6 62 34 -6 c19 -4 86 -10 149 -13 63 -4 117 -10
120 -14 3 -4 52 -9 110 -11 58 -2 108 -8 112 -14 4 -5 15 -10 25 -10 19 0 20
-6 7 -40 -7 -17 -6 -18 8 -7 11 9 18 10 23 2 3 -5 17 -10 30 -10 16 0 25 7 29
25 7 29 33 33 51 8 15 -20 5 -48 -33 -100 -22 -30 -22 -38 0 -34 4 0 5 -5 2
-13 -3 -7 1 -17 8 -23 7 -5 156 -15 338 -22 761 -28 885 -33 889 -37 2 -2 -17
-25 -43 -51 -43 -45 -46 -51 -46 -102 l0 -54 28 24 27 24 -28 -31 c-23 -25
-27 -39 -27 -86 l0 -55 -46 -7 c-26 -3 -73 -6 -104 -6 -53 0 -57 -2 -56 -23 1
-21 6 -22 111 -28 61 -4 136 -7 168 -8 50 -1 60 -4 64 -21 3 -10 13 -22 22
-25 30 -9 54 -76 38 -102 -4 -6 -1 -18 7 -26 11 -11 12 -17 3 -26 -8 -8 -5
-11 11 -11 12 0 22 -6 22 -14 0 -7 7 -19 16 -27 11 -9 14 -22 10 -41 -7 -35 9
-36 27 -2 9 17 17 23 21 15 4 -6 16 -11 26 -11 27 0 34 -18 15 -40 -13 -14
-13 -19 -3 -23 9 -4 7 -6 -4 -6 -15 -1 -17 -15 -15 -120 1 -86 -2 -123 -12
-135 -10 -12 -11 -19 -2 -30 8 -10 9 -26 2 -56 -10 -46 -7 -66 13 -73 19 -7 7
-65 -16 -81 -18 -13 -18 -14 -1 -21 10 -4 35 -9 55 -12 35 -5 37 -3 41 29 l3
33 8 -32 c9 -34 15 -37 53 -27 20 6 22 11 16 50 -4 32 -2 44 7 44 7 0 10 -7 6
-15 -4 -11 2 -15 22 -16 153 -4 269 -10 280 -14 8 -3 12 10 12 44 l0 49 -80 7
c-44 4 -113 8 -154 10 -40 1 -78 5 -84 9 -15 9 -15 49 -1 63 6 6 8 17 4 23 -9
14 -18 107 -14 135 2 11 3 55 2 97 -1 74 0 77 26 83 14 4 29 12 33 18 5 8 19
8 55 -1 26 -7 58 -10 71 -8 12 3 20 1 17 -3 -3 -5 1 -11 9 -14 10 -4 15 5 18
37 l3 44 -48 12 c-56 14 -77 40 -77 95 0 23 -5 46 -10 51 -7 7 -8 19 -1 37 14
37 43 38 421 10 63 -5 139 -7 168 -5 46 4 52 7 52 27 0 22 -5 24 -82 29 -46 4
-157 8 -248 11 -91 2 -200 7 -243 11 -66 6 -77 9 -71 23 4 9 9 26 12 39 3 14
10 21 18 18 9 -4 13 2 11 17 -1 16 3 21 23 22 21 0 24 -5 25 -32 1 -42 5 -45
66 -49 29 -2 56 -9 61 -16 4 -8 8 7 8 35 0 26 4 47 8 47 5 0 23 -20 41 -45 45
-63 51 -64 51 -3 -1 41 -6 60 -25 83 l-24 29 -23 -19 -23 -20 19 22 c17 21 18
24 2 47 -30 47 -16 39 27 -15 39 -49 42 -51 45 -29 5 45 11 53 26 41 10 -9 21
-8 42 1 16 6 36 12 44 12 8 1 16 11 18 24 2 13 14 27 26 32 13 4 30 15 38 23
8 9 30 24 47 35 18 11 28 23 23 26 -6 4 -13 2 -17 -4 -8 -13 -25 -13 -25 0 0
6 7 10 15 10 16 0 35 30 35 54 0 9 -7 16 -15 16 -8 0 -15 6 -15 14 0 8 -4 16
-8 18 -14 5 -24 58 -11 58 26 0 69 -36 74 -62 4 -18 13 -28 24 -28 15 0 17
-14 19 -127 2 -69 7 -133 13 -142 8 -12 9 -10 5 11 -4 15 -2 30 4 33 5 3 10
11 10 16 0 6 -4 8 -8 5 -4 -3 -9 11 -9 30 -1 19 3 37 8 40 5 3 9 10 9 15 0 6
-3 8 -7 6 -5 -3 -8 8 -8 24 0 30 9 40 116 130 67 57 81 65 73 45 -3 -8 -1 -23
5 -33 9 -14 10 -10 7 21 -3 37 0 43 48 87 28 25 70 62 93 82 23 19 40 37 38
41 -3 3 -2 4 2 1 4 -3 8 -15 10 -27 2 -12 8 -27 14 -34 7 -8 7 -14 -1 -19 -8
-5 -6 -14 5 -32 9 -13 14 -30 12 -38 -3 -7 1 -25 9 -41 8 -15 12 -34 9 -42 -3
-8 2 -26 11 -40 17 -25 16 -26 -24 -61 -22 -20 -68 -60 -101 -89 l-60 -53 -16
32 c-9 17 -15 40 -12 50 3 11 2 19 -3 19 -13 0 -18 64 -6 72 7 5 5 8 -6 8 -12
0 -15 6 -10 23 5 19 3 20 -10 9 -13 -11 -14 -19 -5 -49 9 -28 9 -37 0 -40 -9
-3 -7 -14 4 -39 12 -25 14 -37 6 -45 -8 -8 -7 -21 3 -46 l15 -34 -58 -53
c-141 -129 -148 -138 -45 -58 35 27 64 42 83 42 30 0 49 23 49 58 0 13 38 52
110 111 61 51 116 103 122 116 6 14 19 27 29 30 9 3 30 16 45 28 26 20 37 21
153 18 69 -2 134 -7 143 -12 10 -6 19 -5 23 1 4 6 41 9 91 7 59 -2 84 0 84 9
0 6 11 10 24 9 15 -2 33 6 47 21 27 28 44 30 58 7 10 -17 10 -17 11 1 0 17 6
18 77 12 42 -4 80 -9 85 -12 4 -3 8 0 8 6 0 7 25 10 73 8 62 -3 72 -5 69 -20
-4 -25 14 -23 21 2 8 29 34 24 41 -8 4 -15 5 -54 4 -86 l-2 -59 -181 4 -180 4
-7 -90 c-3 -49 -9 -202 -12 -340 -3 -137 -8 -331 -11 -430 -3 -99 -7 -268 -10
-375 -3 -107 -8 -235 -10 -285 -2 -49 -7 -205 -10 -345 -3 -140 -8 -300 -11
-355 -2 -55 -1 -105 3 -111 5 -7 53 -15 113 -18 58 -4 133 -9 168 -12 l62 -6
-10 28 c-7 18 -9 73 -6 149 3 66 8 214 11 330 3 116 7 273 10 350 3 77 9 273
15 435 5 162 14 376 20 475 6 99 13 260 16 358 l6 178 72 -3 71 -3 -1 -80 c-2
-155 -14 -651 -19 -730 -2 -44 -7 -188 -10 -320 -3 -132 -8 -314 -10 -405 -2
-91 -7 -284 -10 -430 -3 -146 -8 -275 -11 -287 -4 -20 0 -23 33 -25 l38 -1
-45 -6 -45 -7 45 -7 c25 -3 102 -8 172 -10 110 -3 128 -2 133 12 2 9 7 131 10
271 3 140 7 285 9 322 3 44 0 69 -8 72 -8 3 -8 5 1 5 9 1 12 48 13 178 0 98 2
210 5 248 2 39 7 196 10 350 3 154 8 312 10 350 10 150 14 534 6 539 -9 6
-248 20 -317 18 l-41 0 -2 94 c-1 52 2 94 6 94 4 0 26 -5 48 -11 46 -11 96
-16 280 -24 88 -4 133 -10 140 -19 15 -19 98 -28 119 -13 12 9 37 11 76 7 33
-3 61 -2 63 3 1 5 56 8 122 8 67 0 125 5 132 11 7 5 18 6 24 2 9 -5 5 -10 -10
-16 -18 -6 -21 -11 -13 -21 15 -18 13 -114 -3 -127 -19 -16 -111 -25 -119 -11
-5 8 -13 8 -26 1 -22 -12 -102 -2 -94 11 3 5 0 9 -5 9 -6 0 -11 -4 -11 -10 0
-5 -17 -9 -37 -9 -38 1 -38 1 -8 9 l30 8 -27 1 c-15 0 -30 -3 -33 -9 -7 -12
-12 -145 -19 -620 -4 -206 -8 -451 -11 -545 -3 -93 -7 -273 -10 -400 -3 -126
-7 -270 -10 -320 -8 -166 -7 -477 1 -484 10 -9 446 -32 454 -24 12 11 -30 23
-78 21 -41 -1 -55 2 -66 18 -8 11 -11 23 -6 29 5 6 11 127 14 270 4 143 9 339
11 435 3 96 7 317 10 490 3 173 8 326 12 340 3 14 11 183 17 375 l11 350 69 3
69 3 -7 -298 c-3 -164 -8 -458 -11 -653 -3 -195 -8 -389 -10 -430 -2 -41 -7
-266 -10 -500 -4 -234 -8 -432 -11 -441 -4 -14 16 -17 153 -22 87 -3 161 -3
165 1 3 4 10 74 13 155 5 109 4 152 -5 162 -9 10 -9 15 -1 15 7 0 11 58 12
188 0 103 2 221 3 262 2 45 -2 78 -8 82 -7 5 -8 11 -1 15 16 12 17 35 3 44 -9
6 -9 9 -1 9 8 0 11 31 11 108 -1 59 2 129 6 156 6 36 4 51 -6 57 -10 7 -10 9
0 9 6 0 12 9 12 20 0 11 -4 20 -10 20 -5 0 -10 5 -10 11 0 5 5 7 10 4 6 -3 10
3 10 14 0 10 -6 22 -12 24 -10 4 -10 8 -2 14 16 11 16 153 1 153 -7 0 -5 4 3
10 21 13 29 227 8 214 -10 -6 -11 -5 -1 7 6 8 13 44 15 82 2 54 0 67 -12 67
-11 0 -12 2 -3 8 7 4 15 31 18 60 2 29 1 51 -3 48 -4 -2 -7 9 -7 24 0 15 3 26
7 24 7 -5 16 288 8 298 -12 15 -224 33 -215 18 3 -6 37 -10 76 -10 38 0 69 -4
69 -8 0 -9 -146 -5 -190 5 -23 5 -24 6 -5 13 19 8 19 9 -2 9 -13 1 -23 -3 -23
-9 0 -5 -8 -10 -17 -10 -14 0 -15 2 -5 9 10 6 8 13 -12 27 -20 14 -27 30 -30
64 -7 76 -19 125 -34 136 -18 13 -8 32 24 44 14 6 24 18 24 30 0 11 7 20 15
20 11 0 14 15 12 72 -2 65 0 73 18 76 11 3 23 8 26 13 3 5 77 10 164 12 125 2
159 5 163 16 3 8 0 11 -6 7 -6 -4 -10 2 -9 14 1 11 4 20 8 20 8 0 17 154 24
415 3 105 7 255 10 335 3 80 7 228 10 330 3 102 8 248 10 325 2 77 7 246 11
375 3 129 9 296 13 370 5 90 3 137 -4 142 -14 10 -343 10 -349 0 -2 -4 -35 -7
-73 -7 -37 1 -70 -2 -73 -6 -3 -4 -82 -10 -175 -14 -94 -4 -171 -8 -172 -9 -3
-3 -14 -304 -27 -721 -7 -263 -8 -392 -1 -397 6 -5 5 -8 -2 -8 -7 0 -13 -9
-13 -20 0 -11 5 -20 11 -20 8 0 8 -4 1 -12 -5 -7 -10 -62 -11 -121 0 -59 -3
-112 -6 -117 -3 -5 -1 -12 5 -15 8 -5 8 -11 0 -20 -11 -14 -25 -376 -25 -675
l0 -175 143 -2 c107 -1 152 -6 177 -17 32 -15 33 -18 37 -88 3 -40 4 -75 2
-77 -1 -1 -9 2 -16 8 -7 7 -21 17 -31 24 -10 7 -22 29 -27 47 l-7 35 -8 -42
c-4 -24 -12 -40 -19 -38 -12 5 -153 12 -381 21 -140 6 -152 8 -176 30 -14 13
-29 24 -35 24 -5 0 5 -11 21 -25 28 -23 29 -24 8 -25 -12 0 -25 5 -28 10 -3 6
-13 10 -21 10 -8 0 -12 -5 -9 -11 4 -6 0 -9 -11 -7 -12 2 -18 -2 -16 -11 2
-11 0 -12 -10 -4 -7 6 -20 11 -28 11 -33 2 -75 16 -82 26 -4 6 -8 28 -8 49 0
20 -4 37 -8 37 -4 0 -23 -16 -42 -35 -48 -49 -61 -46 -55 12 3 26 10 53 17 59
9 9 61 14 165 16 83 2 155 7 160 11 4 5 9 75 10 155 2 136 17 657 28 1007 12
361 15 457 20 570 6 163 18 576 17 599 0 10 -3 20 -5 23 -3 2 -65 -2 -138 -9
-74 -7 -121 -14 -104 -16 16 -2 72 1 123 7 85 10 114 9 101 -3 -6 -5 -239 -26
-281 -25 -31 1 -32 1 -8 9 18 6 10 8 -25 4 -105 -10 -140 -16 -146 -26 -3 -5
-37 -12 -75 -15 -38 -3 -88 -8 -111 -13 -22 -4 -56 -7 -75 -6 l-33 1 -1 -125
c-1 -69 -5 -178 -8 -242 -6 -93 -4 -118 6 -118 9 0 10 -2 2 -8 -8 -4 -14 -66
-18 -172 -4 -91 -8 -205 -11 -255 -2 -49 -7 -171 -10 -270 -3 -99 -8 -214 -10
-255 -3 -41 -7 -160 -11 -265 -3 -104 -9 -271 -14 -370 -5 -111 -4 -184 2
-190 5 -6 69 -10 146 -11 77 -1 149 -6 165 -12 26 -11 28 -15 25 -64 -3 -46
-6 -53 -26 -56 -18 -3 -23 2 -28 27 -9 41 -29 57 -31 24 -2 -42 -18 -48 -116
-48 -145 1 -223 11 -267 34 -37 19 -56 21 -218 20 -97 0 -186 2 -197 7 -16 6
-18 5 -7 -7 6 -7 12 -32 12 -56 l0 -43 65 35 c36 20 65 31 65 25 0 -14 37 -12
43 3 4 9 6 9 6 0 1 -7 10 -13 22 -13 11 0 17 4 14 10 -10 16 3 12 33 -10 36
-26 102 -53 102 -41 0 6 -4 12 -9 15 -9 6 -3 56 8 56 3 0 13 -5 21 -10 13 -9
13 -11 0 -20 -12 -8 -11 -10 8 -10 12 0 22 5 22 12 0 6 3 8 7 4 4 -4 8 -31 9
-60 1 -50 0 -53 -22 -53 -13 0 -24 3 -24 7 0 4 -28 26 -63 49 -43 28 -74 41
-98 41 -19 0 -29 -4 -24 -8 6 -4 16 -18 24 -32 10 -20 11 -22 0 -12 -7 6 -21
12 -30 12 -20 0 -33 27 -16 34 7 2 -8 5 -33 5 -29 0 -40 -2 -31 -8 8 -5 9 -11
3 -15 -6 -3 -12 -1 -14 5 -2 7 -16 4 -38 -10 -57 -34 -70 -29 -70 29 0 41 -3
50 -17 51 -11 0 -13 3 -5 6 16 6 15 21 -2 39 -8 8 -14 31 -13 56 2 34 7 45 25
54 14 7 19 14 13 18 -17 11 -60 -27 -61 -52 0 -27 -18 -25 -34 4 -12 21 -26
34 -39 34 -5 0 -5 -6 -1 -12 5 -8 0 -7 -11 2 -17 13 -18 13 -13 -1 9 -22 -94
-124 -116 -116 -10 4 -16 1 -16 -8 0 -8 -8 -18 -17 -24 -10 -5 -15 -13 -11
-17 8 -7 73 43 137 106 41 41 55 47 66 30 3 -6 -1 -7 -9 -4 -10 4 -16 1 -16
-8 0 -16 -87 -102 -133 -132 -21 -14 -30 -16 -41 -7 -11 9 -28 -3 -86 -59 -39
-40 -70 -73 -68 -75 2 -2 34 25 71 62 37 36 71 62 75 58 4 -4 1 -10 -6 -12 -6
-3 -12 -9 -12 -14 0 -14 -81 -99 -94 -99 -6 0 -17 -9 -24 -20 -7 -12 -17 -18
-21 -15 -5 3 -11 0 -13 -6 -2 -6 -16 5 -32 25 -15 21 -26 39 -25 40 2 2 31 27
64 57 178 159 220 194 232 193 7 -1 12 1 11 5 -2 19 4 24 13 11 9 -13 10 -13
6 1 -3 10 6 28 23 44 30 28 31 45 4 45 -8 0 -13 -4 -10 -9 6 -9 -52 -65 -188
-186 -44 -39 -107 -95 -140 -125 -221 -199 -224 -201 -234 -171 -3 9 0 11 8 6
8 -5 28 9 55 39 24 25 47 46 52 46 4 0 35 25 68 56 33 30 89 81 125 112 36 31
92 81 125 112 33 31 73 66 89 78 23 18 27 25 17 35 -10 9 -15 8 -25 -5 -7 -10
-18 -18 -25 -18 -6 0 -11 -7 -11 -15 0 -8 -9 -15 -21 -15 -13 0 -23 -10 -30
-30 -6 -16 -15 -28 -19 -25 -5 3 -14 -4 -20 -15 -6 -11 -17 -20 -25 -20 -7 0
-15 -4 -17 -9 -3 -10 -126 -14 -193 -6 -22 3 -71 7 -110 10 -67 4 -70 5 -70
30 -1 14 -9 35 -20 48 -11 12 -20 24 -21 27 -5 29 -18 60 -24 60 -4 0 -8 -12
-8 -27 -1 -16 -3 -35 -4 -43 -3 -30 2 -51 11 -46 19 12 38 -5 33 -30 -5 -28
-10 -29 -32 -9 -14 12 -23 13 -45 5 -20 -7 -31 -7 -41 1 -11 9 -14 8 -14 -4 0
-19 19 -26 51 -20 22 4 24 2 24 -39 -1 -64 -11 -78 -56 -78 -43 0 -41 -7 -24
76 4 18 2 25 -7 22 -8 -3 -12 -16 -10 -32 2 -18 0 -26 -7 -22 -5 4 -8 13 -4
21 7 21 -21 19 -38 -2 -12 -15 -12 -16 1 -8 13 8 13 7 1 -8 -15 -19 -26 -23
-15 -6 8 14 -32 2 -63 -19 -23 -14 -27 -23 -24 -54 3 -26 -8 -22 -19 7 -8 22
-16 25 -57 25 -88 0 -338 11 -369 16 -17 2 -45 19 -64 39 l-34 35 59 0 c72 0
69 6 -8 14 -33 3 -65 10 -73 17 -21 17 -17 45 8 61 25 17 19 48 -9 48 -10 0
-27 7 -37 15 -17 13 -18 18 -7 42 l12 28 -22 -22 c-21 -21 -22 -27 -13 -63 12
-41 3 -59 -36 -73 -9 -3 -3 -6 12 -6 29 -1 86 -54 80 -74 -2 -5 0 -17 3 -26 5
-13 7 -14 15 -1 8 13 13 11 32 -8 l23 -23 -50 5 c-27 2 -68 5 -90 5 -36 1 -40
4 -41 26 -2 23 0 24 15 13 9 -7 19 -17 22 -22 4 -4 9 -4 13 2 7 12 -41 45 -55
37 -5 -4 -23 -10 -39 -15 -23 -7 -30 -5 -30 6 0 9 10 14 29 14 31 0 56 22 48
42 -4 9 -6 7 -6 -4 -1 -21 -38 -33 -56 -18 -21 17 -35 3 -35 -36 0 -33 -1 -34
-39 -34 -22 0 -42 -6 -45 -12 -3 -10 -8 -8 -16 4 -6 9 -17 24 -26 33 -20 20
-10 19 21 -1 29 -19 35 -2 6 18 -10 7 -22 28 -25 46 l-8 32 74 1 c40 1 65 3
56 6 -10 2 -18 11 -18 19 0 8 -9 14 -21 14 -11 0 -18 -4 -15 -9 4 -5 -3 -7
-14 -4 -30 8 -35 23 -8 23 21 0 20 2 -10 20 -18 11 -38 20 -45 20 -7 0 -18 14
-25 30 -8 17 -18 28 -22 25 -5 -3 0 -26 11 -51 12 -25 18 -48 15 -51 -5 -6
-26 40 -26 58 0 5 -4 9 -9 9 -4 0 -6 -11 -3 -25 4 -22 1 -25 -26 -25 -17 0
-32 -6 -36 -15 -3 -8 -10 -15 -17 -15 -6 0 -9 7 -5 15 4 11 -1 15 -19 15 -14
0 -25 -5 -25 -11 0 -6 -7 -9 -15 -5 -17 6 -48 -21 -40 -35 4 -5 17 -9 30 -9
18 0 26 7 31 24 5 20 9 23 19 13 13 -13 10 -31 -5 -22 -4 3 -11 -2 -14 -11 -8
-21 -8 -21 10 -28 8 -3 13 -2 10 3 -7 11 63 75 72 66 4 -4 -2 -13 -12 -21 -11
-7 -17 -17 -13 -21 4 -3 15 1 25 10 20 18 62 23 62 8 0 -5 -10 -13 -21 -16
-15 -5 -18 -10 -10 -15 9 -5 8 -11 -4 -24 -9 -9 -20 -14 -25 -11 -5 3 -11 1
-15 -5 -10 -16 -25 -1 -18 18 5 14 4 15 -8 4 -11 -10 -11 -16 -1 -33 19 -29 6
-37 -17 -11 -10 12 -25 22 -33 22 -8 0 -19 5 -26 12 -9 9 -12 9 -12 0 0 -7 5
-12 10 -12 6 0 10 -5 10 -11 0 -6 -7 -9 -15 -5 -9 3 -15 0 -15 -10 0 -8 -5
-12 -11 -9 -6 4 -8 13 -5 20 3 9 -7 14 -30 17 -19 2 -34 0 -34 -5 0 -4 -6 -5
-12 0 -18 11 -78 14 -78 3 0 -4 6 -10 13 -13 6 -2 9 -8 5 -12 -5 -5 -16 1 -25
12 -23 25 -63 36 -63 17 0 -8 9 -14 21 -14 11 0 17 -4 14 -10 -10 -16 -43 -11
-48 8 -4 14 -5 15 -6 1 -1 -12 -9 -16 -31 -14 -42 3 -51 15 -12 15 18 0 32 5
32 10 0 6 -13 10 -30 10 -16 0 -30 5 -30 10 0 6 4 10 10 10 5 0 9 6 7 13 -4
21 75 17 100 -5 20 -19 21 -19 20 -1 -2 16 6 18 79 16 77 -3 82 -2 87 19 4 12
2 27 -4 34 -5 6 -8 20 -7 30 2 11 -1 20 -7 21 -5 1 -9 -10 -8 -24 4 -45 -20
-61 -80 -55 -28 2 -58 9 -65 15 -10 8 -16 7 -20 0 -4 -6 -23 -10 -42 -9 -19 2
-41 -1 -47 -6 -8 -7 -24 -6 -44 1 -17 6 -63 13 -103 16 -39 4 -77 8 -83 10
-15 5 -17 51 -3 60 6 3 10 12 10 18 0 8 -3 8 -9 -1 -4 -8 -12 -13 -17 -13 -8
1 -10 -77 -2 -84 2 -2 12 -5 23 -7 11 -1 23 -7 26 -12 8 -10 35 -11 116 -3 32
3 50 3 41 1 -10 -3 -18 -12 -18 -19 0 -8 8 -19 18 -24 13 -8 8 -10 -25 -9 -42
1 -56 11 -30 21 7 4 6 6 -4 6 -18 1 -33 -25 -23 -40 3 -5 0 -9 -5 -9 -6 0 -11
4 -11 9 0 5 -8 11 -17 15 -10 3 -24 9 -32 12 -10 5 -12 2 -8 -10 4 -10 1 -16
-7 -16 -19 0 -29 32 -14 42 11 6 11 8 0 8 -7 0 -15 -7 -18 -15 -4 -8 -13 -15
-20 -15 -20 0 -30 30 -13 41 11 7 11 9 -2 9 -20 0 -29 -20 -29 -60 0 -39 -15
-45 -50 -20 -17 12 -30 17 -30 11 0 -6 -9 -11 -20 -11 -25 0 -27 20 -2 20 15
1 15 2 -2 15 -11 8 -28 13 -37 10 -10 -3 -20 -2 -23 3 -3 6 2 12 12 14 22 6
62 -8 62 -22 0 -5 15 -10 33 -10 20 0 27 -3 19 -9 -10 -6 -10 -10 3 -21 8 -7
15 -9 15 -4 1 5 5 28 9 52 9 48 15 44 -85 42 -48 -1 -63 2 -67 15 -5 11 -14
14 -33 9 -17 -4 -29 -2 -35 7 -12 19 -11 67 2 71 14 5 14 105 -1 123 -9 10
-30 15 -69 14 -33 -1 -44 -4 -26 -6 56 -8 51 -23 -9 -23 -35 0 -55 4 -51 10 3
6 1 10 -4 10 -20 0 -12 -42 9 -47 21 -6 23 -11 20 -55 -1 -20 4 -27 21 -30 30
-4 37 -28 8 -28 -21 0 -21 -1 -6 -18 24 -26 21 -32 -13 -32 -16 0 -30 -4 -30
-10 0 -5 -7 -10 -16 -10 -9 0 -28 -9 -42 -21 -24 -18 -28 -19 -38 -5 -18 25
-23 19 -13 -16 11 -40 11 -38 -1 -38 -5 0 -10 10 -10 21 0 16 -3 19 -12 11 -7
-5 -26 -8 -43 -5 -16 2 -76 4 -132 3 -99 -1 -102 -1 -105 22 -4 27 -37 38 -34
11 0 -10 -5 -18 -13 -18 -20 0 -22 53 -4 93 13 31 18 34 49 30 19 -2 34 0 34
4 0 5 15 8 33 7 17 -2 60 -2 93 -1 58 2 62 4 69 30 4 15 9 104 11 197 4 205
11 368 18 455 3 36 8 117 11 180 13 275 15 317 20 350 3 19 7 99 10 178 2 78
8 184 11 235 4 50 6 99 6 107 -1 8 3 92 8 185 18 323 18 373 1 389 -14 11 -35
12 -141 0 -144 -16 -253 -34 -260 -44 -3 -4 -32 -10 -65 -13 -37 -3 -50 -2
-35 3 14 4 41 9 60 10 19 2 26 4 15 6 -11 3 -65 -2 -120 -9 l-100 -12 -6 -75
c-4 -41 -10 -151 -13 -245 -4 -93 -11 -244 -17 -334 -8 -132 -7 -166 3 -172
10 -7 10 -9 1 -9 -7 0 -13 -9 -13 -19 0 -11 6 -22 13 -24 10 -4 10 -6 0 -6
-17 -1 -17 -38 0 -44 7 -3 5 -6 -5 -6 -19 -1 -26 -41 -8 -41 6 0 10 -5 10 -11
0 -5 -4 -7 -10 -4 -6 4 -10 -14 -11 -47 0 -65 -17 -324 -24 -393 -7 -60 -15
-214 -30 -595 -5 -136 -10 -177 -21 -183 -22 -12 -17 -37 9 -39 71 -6 203 -2
210 7 4 6 10 5 15 -3 5 -7 13 -12 18 -10 21 6 54 -24 55 -50 0 -24 1 -25 8 -7
5 11 7 23 4 28 -2 4 8 6 24 6 15 -1 21 -3 12 -6 -11 -3 -15 -12 -11 -28 3 -20
0 -25 -17 -25 -11 0 -21 -4 -21 -9 0 -5 7 -8 16 -7 9 0 19 -5 21 -11 7 -19
-27 -29 -38 -12 -7 11 -9 9 -9 -7 0 -25 46 -39 68 -22 6 6 12 7 12 2 0 -14
-13 -30 -35 -42 -13 -7 -15 -12 -6 -12 10 0 7 -8 -9 -25 -29 -31 -35 -31 -38
-2 -1 13 8 29 21 39 21 16 21 17 3 24 -12 5 -21 2 -27 -9 -5 -9 -17 -23 -25
-32 -13 -12 -14 -19 -4 -30 7 -8 8 -15 3 -15 -5 0 -22 20 -37 45 -16 25 -31
45 -33 45 -2 0 -8 -10 -13 -22 l-9 -23 0 23 c-1 18 6 24 32 29 l32 7 -39 8
c-22 5 -48 15 -57 24 -14 13 -17 13 -22 0 -3 -8 0 -17 8 -20 7 -2 19 -30 25
-62 11 -50 10 -58 -4 -66 -9 -5 -14 -13 -11 -19 9 -14 -29 -11 -43 3 -10 10
-17 10 -33 0 -17 -11 -23 -10 -39 10 -32 38 -24 55 10 23 37 -36 40 -21 3 17
-18 19 -27 39 -27 62 0 29 -3 34 -25 34 -20 0 -21 -2 -7 -10 9 -5 14 -14 10
-19 -4 -6 -11 -6 -20 2 -12 10 -14 3 -14 -39 0 -34 -5 -54 -14 -59 -8 -4 -65
-6 -127 -3 -122 5 -112 0 -126 70 -3 16 -10 30 -16 30 -7 0 -7 4 1 12 17 17
15 23 -14 37 -18 8 -30 8 -38 2 -9 -7 -16 -7 -24 1 -8 8 -15 8 -25 0 -8 -7
-16 -10 -19 -7 -3 3 -24 7 -48 9 -23 3 -46 8 -49 13 -11 15 -49 14 -87 -2 -20
-8 -39 -13 -42 -10 -3 3 -1 5 5 5 6 0 10 24 9 56 -1 75 17 88 117 85 253 -9
257 -8 257 60 0 22 -3 38 -7 36 -5 -3 -8 10 -9 28 0 19 4 33 10 32 7 -1 13 49
18 143 3 80 9 181 12 225 16 249 19 345 7 345 -6 0 -11 5 -11 11 0 6 6 9 13 6
11 -4 17 59 32 326 14 249 15 332 7 335 -7 2 -12 8 -12 13 0 4 7 6 15 3 13 -5
15 11 16 112 1 66 3 136 4 157 2 20 0 37 -5 37 -6 0 -6 10 0 25 6 16 6 25 0
25 -6 0 -6 9 0 25 6 16 6 25 0 25 -6 0 -6 9 0 25 5 13 11 73 13 133 2 60 7
114 10 119 4 6 -2 18 -12 27 -15 14 -47 18 -163 23 -82 3 -147 2 -150 -3 -3
-5 24 -10 61 -11 144 -5 251 -15 251 -24 0 -15 -267 1 -320 19 -25 8 -67 17
-95 19 -107 10 -363 14 -368 6z m1736 -40 c-13 -2 -35 -2 -50 0 -16 2 -5 4 22
4 28 0 40 -2 28 -4z m-135 -10 c-10 -2 -28 -2 -40 0 -13 2 -5 4 17 4 22 1 32
-1 23 -4z m49 1 c-3 -3 -12 -4 -19 -1 -8 3 -5 6 6 6 11 1 17 -2 13 -5z m-200
-20 c-3 -3 -12 -4 -19 -1 -8 3 -5 6 6 6 11 1 17 -2 13 -5z m-991 -81 c-4 -43
-9 -134 -12 -203 -3 -69 -19 -354 -35 -635 -23 -383 -27 -511 -18 -514 8 -2 8
-6 -1 -11 -9 -6 -15 -43 -18 -112 -2 -56 -11 -226 -20 -375 l-15 -273 -69 0
c-41 0 -68 4 -68 11 0 5 -4 7 -10 4 -5 -3 -10 1 -10 10 0 9 5 13 10 10 6 -3
10 5 10 19 0 13 -6 27 -12 29 -8 3 -6 6 5 6 15 1 17 12 17 76 0 47 -4 75 -11
75 -6 0 -5 6 3 14 11 10 21 135 43 520 25 441 27 509 15 517 -13 7 -12 9 3 9
14 0 17 10 17 70 0 40 -4 70 -10 70 -5 0 -10 5 -10 10 0 6 5 9 12 8 9 -2 16
49 25 192 7 107 12 223 11 257 -1 35 2 66 5 70 4 3 7 38 7 77 0 39 3 88 6 109
l7 37 65 0 65 0 -7 -77z m724 53 c0 -2 -16 -6 -35 -8 -19 -2 -35 0 -35 4 0 4
16 8 35 8 19 0 35 -2 35 -4z m316 -78 c-6 -72 -15 -216 -21 -368 -2 -58 -7
-141 -10 -185 -18 -274 -26 -405 -31 -515 -2 -69 -8 -170 -12 -225 -4 -55 -7
-137 -7 -182 0 -46 -3 -83 -6 -83 -7 0 -12 -99 -13 -265 -1 -55 -4 -102 -8
-105 -3 -3 -7 -46 -9 -95 -1 -50 -4 -96 -7 -102 -3 -8 -24 -13 -58 -13 -49 0
-54 2 -54 23 -1 44 112 2152 116 2165 2 8 24 12 64 12 l62 0 -6 -62z m6134 2
c0 -6 -63 -10 -170 -10 -107 0 -170 4 -170 10 0 6 63 10 170 10 107 0 170 -4
170 -10z m-413 -6 c-3 -3 -12 -4 -19 -1 -8 3 -5 6 6 6 11 1 17 -2 13 -5z
m-1037 -101 c0 -75 -9 -385 -45 -1498 -3 -93 -7 -217 -10 -275 -3 -58 -6 -165
-7 -238 -2 -148 -4 -153 -70 -151 -70 1 -67 -102 -27 1124 20 611 37 1111 38
1112 1 2 56 8 99 11 21 2 22 -1 22 -85z m1094 59 c3 -5 1 -141 -4 -303 -39
-1233 -51 -1754 -40 -1757 7 -3 8 -7 3 -11 -13 -8 -25 -151 -12 -151 5 0 9 -8
9 -17 0 -16 -10 -18 -76 -17 -41 1 -77 4 -80 7 -3 3 6 335 20 738 14 404 31
878 36 1054 6 176 13 353 16 393 l6 72 58 0 c32 0 61 -4 64 -8z m-6964 -32 c0
-5 -2 -10 -4 -10 -3 0 -8 5 -11 10 -3 6 -1 10 4 10 6 0 11 -4 11 -10z m430
-750 c0 -5 -4 -10 -10 -10 -5 0 -10 5 -10 10 0 6 5 10 10 10 6 0 10 -4 10 -10z
m-5 -50 c3 -5 1 -10 -4 -10 -6 0 -11 5 -11 10 0 6 2 10 4 10 3 0 8 -4 11 -10z
m-55 -1000 c0 -5 -2 -10 -4 -10 -3 0 -8 5 -11 10 -3 6 -1 10 4 10 6 0 11 -4
11 -10z m1300 -160 c0 -5 -2 -10 -4 -10 -3 0 -8 5 -11 10 -3 6 -1 10 4 10 6 0
11 -4 11 -10z m-66 -26 c17 -7 10 -34 -9 -34 -17 0 -28 17 -20 30 7 12 8 12
29 4z m76 -24 c0 -4 -6 -13 -14 -19 -11 -9 -15 -7 -18 12 -4 20 -1 23 14 19
10 -2 18 -8 18 -12z m-1320 0 c0 -5 -4 -10 -10 -10 -5 0 -10 5 -10 10 0 6 5
10 10 10 6 0 10 -4 10 -10z m-402 -99 c3 -16 -1 -22 -10 -19 -7 3 -15 15 -16
27 -3 16 1 22 10 19 7 -3 15 -15 16 -27z m1072 19 c0 -5 -9 -10 -19 -10 -11 0
-23 5 -26 10 -4 6 5 10 19 10 14 0 26 -4 26 -10z m-1070 -64 c0 -8 -5 -18 -11
-22 -14 -8 -33 11 -25 25 10 16 36 13 36 -3z m2805 4 c3 -5 1 -10 -4 -10 -6 0
-11 5 -11 10 0 6 2 10 4 10 3 0 8 -4 11 -10z m1172 -22 c-3 -8 -6 -5 -6 6 -1
11 2 17 5 13 3 -3 4 -12 1 -19z m-2379 -56 c-4 -2 -8 -11 -8 -19 0 -10 6 -13
16 -9 15 6 15 4 3 -10 -9 -11 -24 -15 -49 -11 -20 2 -44 1 -53 -4 -10 -6 -18
-5 -23 3 -4 7 -4 10 1 6 12 -11 36 19 40 49 1 16 8 27 15 25 6 -1 21 5 33 13
21 15 22 14 27 -12 3 -16 2 -29 -2 -31z m5015 41 c-7 -2 -19 -2 -25 0 -7 3 -2
5 12 5 14 0 19 -2 13 -5z m-4852 -30 c-12 -20 -14 -14 -5 12 4 9 9 14 11 11 3
-2 0 -13 -6 -23z m5026 -5 c-3 -7 -5 -2 -5 12 0 14 2 19 5 13 2 -7 2 -19 0
-25z m-982 12 c4 -6 -9 -10 -30 -10 -20 0 -34 3 -31 8 7 11 54 13 61 2z
m-5705 -10 c-20 -13 -53 -13 -45 0 3 6 18 10 33 10 21 0 24 -2 12 -10z m114
-6 c3 -8 2 -12 -4 -9 -6 3 -10 10 -10 16 0 14 7 11 14 -7z m4527 -19 c10 -27
17 -34 31 -29 18 5 25 -10 9 -20 -11 -7 -2 -46 10 -46 5 0 9 5 9 12 0 6 3 8 6
5 4 -4 2 -13 -5 -20 -9 -11 -5 -26 15 -66 23 -44 25 -54 13 -65 -8 -7 -52 -46
-98 -87 l-83 -74 -24 30 c-13 17 -22 36 -19 43 2 6 0 12 -5 12 -6 0 -10 7 -10
15 0 8 -12 50 -26 92 l-26 78 83 77 c46 43 89 78 96 78 6 0 17 -16 24 -35z
m1057 8 c-10 -2 -28 -2 -40 0 -13 2 -5 4 17 4 22 1 32 -1 23 -4z m1110 -17 c3
-3 -10 -6 -29 -7 -25 -1 -29 -3 -14 -7 17 -6 20 -15 19 -49 -2 -68 -3 -70 -21
-75 -16 -4 -18 2 -14 50 2 36 -1 57 -9 62 -7 5 -10 15 -7 25 5 12 15 15 38 11
17 -2 33 -7 37 -10z m-5734 -7 c-6 -11 -31 -12 -37 -1 -3 4 6 8 19 8 13 1 21
-2 18 -7z m4606 -9 c0 -11 -7 -20 -15 -20 -8 0 -15 9 -15 20 0 11 7 20 15 20
8 0 15 -9 15 -20z m-5492 3 c-10 -2 -28 -2 -40 0 -13 2 -5 4 17 4 22 1 32 -1
23 -4z m1512 -15 c0 -6 -6 -5 -15 2 -8 7 -15 14 -15 16 0 2 7 1 15 -2 8 -4 15
-11 15 -16z m290 12 c0 -5 -2 -10 -4 -10 -3 0 -8 5 -11 10 -3 6 -1 10 4 10 6
0 11 -4 11 -10z m110 1 c0 -6 -4 -13 -10 -16 -5 -3 -10 1 -10 9 0 9 5 16 10
16 6 0 10 -4 10 -9z m580 5 c0 -2 -7 -6 -15 -10 -8 -3 -15 -1 -15 4 0 6 7 10
15 10 8 0 15 -2 15 -4z m1204 -12 c4 -10 1 -14 -6 -12 -15 5 -23 28 -10 28 5
0 13 -7 16 -16z m52 -29 c-3 -9 -11 -13 -16 -10 -8 5 -7 11 1 21 8 10 8 14 0
14 -6 0 -11 5 -11 12 0 8 6 6 16 -4 10 -9 14 -24 10 -33z m114 31 c0 -7 11
-16 25 -18 26 -5 35 6 13 15 -7 3 -1 6 14 6 21 1 28 -5 33 -29 8 -35 24 -50
18 -16 -6 32 20 46 80 42 64 -3 72 -16 11 -16 -27 0 -56 -5 -64 -10 -13 -8
-13 -11 0 -22 8 -7 13 -12 11 -10 -3 1 -13 -10 -22 -25 -14 -21 -15 -29 -6
-36 7 -5 2 -6 -12 -2 -19 6 -29 1 -52 -26 -15 -18 -25 -37 -22 -42 3 -6 1 -7
-6 -3 -7 4 -19 5 -28 2 -12 -5 -13 -9 -4 -20 15 -18 -10 -39 -34 -29 -14 5
-17 3 -13 -9 4 -8 3 -21 -2 -28 -6 -9 -13 -7 -30 10 -17 17 -24 19 -31 9 -4
-7 -5 -17 -3 -21 6 -9 -12 -10 -43 -2 -13 4 -23 13 -23 20 0 17 12 18 26 4 8
-8 15 -6 25 6 12 14 11 19 -8 33 -19 16 -19 19 -4 29 15 10 15 11 -1 6 -22 -8
-65 21 -47 31 9 6 8 11 -5 20 -9 7 -14 19 -10 29 7 18 24 22 24 6 0 -5 3 -10
8 -10 4 0 6 18 4 40 -3 32 -1 40 13 40 9 0 14 -4 10 -9 -3 -5 4 -13 16 -16 23
-8 39 7 39 36 0 24 10 29 57 29 30 0 43 -4 43 -14z m-2950 -6 c0 -5 -4 -10
-10 -10 -5 0 -10 5 -10 10 0 6 5 10 10 10 6 0 10 -4 10 -10z m1260 -6 c0 -8
-4 -12 -10 -9 -5 3 -10 10 -10 16 0 5 5 9 10 9 6 0 10 -7 10 -16z m160 1 c0
-8 -4 -15 -10 -15 -5 0 -10 7 -10 15 0 8 5 15 10 15 6 0 10 -7 10 -15z m105 5
c-3 -5 -12 -10 -18 -10 -7 0 -6 4 3 10 19 12 23 12 15 0z m-1809 -34 c1 -9 -3
-19 -9 -25 -9 -6 -13 1 -14 26 -1 27 1 33 10 24 6 -6 12 -17 13 -25z m614 24
c0 -5 -5 -10 -11 -10 -5 0 -7 5 -4 10 3 6 8 10 11 10 2 0 4 -4 4 -10z m-1267
-7 c-7 -2 -19 -2 -25 0 -7 3 -2 5 12 5 14 0 19 -2 13 -5z m1007 -3 c8 -5 11
-10 5 -10 -5 0 -17 5 -25 10 -8 5 -10 10 -5 10 6 0 17 -5 25 -10z m723 -24
c42 -11 207 -7 207 6 0 6 2 9 5 6 3 -3 -1 -18 -10 -34 -18 -34 -19 -50 -4 -59
6 -4 9 -1 8 6 -1 8 4 27 11 42 l14 28 115 -6 c64 -4 117 -8 120 -10 6 -7 -18
-65 -34 -81 -8 -8 -15 -24 -15 -35 0 -11 -7 -22 -15 -25 -8 -3 -19 -21 -25
-40 -6 -19 -17 -37 -24 -41 -7 -5 -17 -21 -23 -38 l-10 -30 -144 -1 c-79 -1
-136 0 -126 3 9 2 17 11 17 19 0 9 -5 12 -11 8 -7 -4 -1 7 12 25 12 17 29 31
36 31 7 0 13 5 13 11 0 5 -6 7 -12 3 -7 -4 -5 2 5 13 9 11 17 23 17 28 0 4 12
23 26 42 14 19 24 36 22 38 -7 8 -26 -11 -42 -42 -9 -18 -23 -33 -30 -33 -8 0
-19 -14 -25 -31 -6 -17 -19 -33 -30 -36 -10 -3 -23 -19 -28 -36 l-9 -32 -132
-3 c-73 -1 -132 0 -132 3 0 24 35 85 49 85 10 0 22 14 29 34 9 23 20 36 35 38
12 2 22 8 23 13 3 35 44 94 44 63 0 -7 9 5 20 26 10 22 17 43 14 47 -3 5 -2
15 3 22 6 9 8 8 11 -4 2 -10 13 -20 25 -23z m-583 11 c0 -4 0 -14 0 -22 0 -8
-4 -15 -10 -15 -5 0 -10 6 -10 14 0 20 -30 29 -36 11 -4 -8 -19 -15 -34 -15
-24 0 -27 3 -23 21 5 18 12 20 59 17 30 -2 54 -7 54 -11z m145 3 c-3 -5 -1
-10 5 -10 6 0 8 -5 5 -10 -5 -8 -11 -7 -21 1 -14 12 -10 29 7 29 6 0 7 -4 4
-10z m4225 -10 c0 -11 -7 -20 -15 -20 -8 0 -15 9 -15 20 0 11 7 20 15 20 8 0
15 -9 15 -20z m-3305 0 c3 -5 1 -10 -4 -10 -6 0 -11 5 -11 10 0 6 2 10 4 10 3
0 8 -4 11 -10z m263 -15 c-3 -3 -9 2 -12 12 -6 14 -5 15 5 6 7 -7 10 -15 7
-18z m36 0 c-9 -14 -18 -25 -20 -25 -2 0 2 11 8 25 6 14 15 25 20 25 5 0 1
-11 -8 -25z m1550 9 c3 -8 2 -12 -4 -9 -6 3 -10 10 -10 16 0 14 7 11 14 -7z
m-2829 -4 c-3 -5 -12 -7 -20 -3 -21 7 -19 13 6 13 11 0 18 -4 14 -10z m4385
-10 c0 -11 -7 -20 -15 -20 -18 0 -19 12 -3 28 16 16 18 15 18 -8z m-4607 3
c-7 -2 -21 -2 -30 0 -10 3 -4 5 12 5 17 0 24 -2 18 -5z m1329 -4 c52 0 101 -4
107 -9 14 -8 5 -76 -10 -86 -5 -3 -9 -15 -9 -28 0 -12 -5 -27 -12 -34 -9 -9
-6 -12 14 -12 15 0 30 -5 34 -11 5 -8 -3 -10 -26 -7 -23 4 -33 1 -37 -11 -3
-9 -11 -30 -19 -48 -8 -17 -14 -38 -14 -46 0 -21 -20 -24 -150 -19 -111 4
-115 5 -114 26 3 32 15 66 24 66 4 0 10 13 13 29 3 16 13 35 21 44 8 8 12 17
9 20 -3 4 3 19 13 34 10 15 19 33 20 38 6 29 25 66 33 61 5 -3 51 -6 103 -7z
m-1664 -11 c-3 -7 -13 -15 -24 -17 -16 -3 -17 -1 -5 13 16 19 34 21 29 4z
m111 -9 c-8 -5 -21 -9 -29 -9 -12 1 -11 4 4 15 10 8 23 12 29 8 5 -3 3 -9 -4
-14z m1921 17 c0 -3 -4 -8 -10 -11 -5 -3 -10 -1 -10 4 0 6 5 11 10 11 6 0 10
-2 10 -4z m-2640 -16 c8 -5 11 -10 5 -10 -5 0 -17 5 -25 10 -8 5 -10 10 -5 10
6 0 17 -5 25 -10z m5490 0 c0 -5 -4 -10 -10 -10 -5 0 -10 5 -10 10 0 6 5 10
10 10 6 0 10 -4 10 -10z m-2735 -28 c-8 -8 -25 10 -19 20 4 6 9 5 15 -3 4 -7
6 -15 4 -17z m2374 12 c2 -2 -4 -7 -14 -10 -10 -4 -21 -1 -26 7 -6 9 -12 10
-16 4 -8 -10 -63 -18 -63 -10 0 17 101 24 119 9z m-2189 -26 c0 -15 -15 -8
-28 12 -12 19 -11 20 8 8 11 -7 20 -16 20 -20z m43 11 c4 -16 11 -19 26 -14
47 15 108 -14 78 -36 -5 -3 5 -9 22 -12 25 -5 31 -11 31 -32 0 -18 -4 -24 -12
-19 -7 5 -9 2 -5 -9 3 -8 -1 -21 -9 -27 -19 -17 -18 -28 3 -26 23 1 29 -36 9
-53 -17 -15 -166 -4 -166 12 0 6 -8 19 -17 29 -20 23 -3 49 19 30 19 -15 99
-18 126 -3 35 19 26 28 -25 25 -27 -1 -56 0 -65 2 -23 7 -23 24 -1 24 13 0 14
3 5 12 -8 8 -15 8 -26 -1 -11 -9 -17 -8 -30 4 -18 19 -18 18 -10 39 3 9 10 13
15 10 6 -3 16 0 24 6 13 10 12 14 0 27 -17 16 -20 33 -6 33 5 0 11 -9 14 -21z
m2217 12 c0 -13 -25 -20 -40 -11 -10 6 -8 9 6 13 31 8 34 7 34 -2z m132 -9
c-19 -6 -14 -22 7 -22 14 0 18 -5 14 -19 -7 -29 -33 -35 -33 -8 0 29 -10 43
-35 50 -12 4 -10 5 8 3 15 -2 27 1 27 6 0 5 5 6 12 2 9 -6 9 -9 0 -12z m-5714
-9 c-2 -10 -7 -18 -12 -18 -5 0 -10 8 -12 18 -1 9 4 17 13 17 8 0 13 -7 11
-17z m1432 7 c0 -5 -2 -10 -4 -10 -3 0 -8 5 -11 10 -3 6 -1 10 4 10 6 0 11 -4
11 -10z m1460 0 c0 -5 -2 -10 -4 -10 -3 0 -8 5 -11 10 -3 6 -1 10 4 10 6 0 11
-4 11 -10z m700 -10 c-28 -22 -64 -27 -57 -7 2 6 13 12 25 12 11 0 24 3 28 8
4 4 12 7 18 7 6 0 0 -9 -14 -20z m121 10 c12 0 8 -73 -4 -81 -16 -11 -49 3
-43 18 3 8 6 28 6 45 0 23 4 29 16 24 9 -3 20 -6 25 -6z m1669 0 c0 -5 -4 -10
-10 -10 -5 0 -10 5 -10 10 0 6 5 10 10 10 6 0 10 -4 10 -10z m237 4 c-3 -3
-12 -4 -19 -1 -8 3 -5 6 6 6 11 1 17 -2 13 -5z m230 0 c-11 -11 -77 -14 -77
-4 0 6 19 10 42 10 23 0 38 -3 35 -6z m123 -9 c9 -11 16 -13 24 -5 28 28 79
-16 119 -102 l17 -38 -64 0 c-71 0 -76 5 -78 70 -1 18 -6 30 -15 30 -7 0 -13
9 -13 20 0 11 -4 20 -8 20 -10 0 -8 -27 2 -52 15 -34 3 -53 -37 -55 -35 -2
-37 0 -37 27 0 16 4 31 10 35 5 3 7 12 3 20 -3 10 2 15 16 15 31 0 26 18 -6
23 -20 3 -17 4 13 6 27 0 46 -5 54 -14z m-2710 -5 c0 -5 -4 -10 -10 -10 -5 0
-10 5 -10 10 0 6 5 10 10 10 6 0 10 -4 10 -10z m713 3 c2 -5 2 -25 0 -45 -5
-35 -8 -38 -38 -38 -32 0 -33 2 -30 33 2 17 4 38 4 45 1 13 57 17 64 5z m1907
-19 c0 -8 -6 -14 -14 -14 -9 0 -13 -11 -12 -32 1 -24 -3 -32 -13 -30 -8 2 -17
-1 -20 -6 -3 -5 -15 -6 -26 -1 -19 7 -19 8 3 8 12 1 22 5 22 11 0 5 -7 7 -15
4 -8 -4 -15 -1 -15 7 0 7 3 9 7 6 3 -4 14 0 24 9 17 16 17 17 -4 36 -22 20
-17 20 28 2 10 -4 15 0 15 11 0 9 5 13 10 10 6 -3 10 -13 10 -21z m559 9 c11
-9 18 -20 15 -24 -11 -19 -12 -94 -1 -102 8 -6 6 -7 -5 -3 -10 3 -20 1 -23 -4
-3 -5 -44 -9 -90 -8 -84 1 -85 2 -87 27 -1 27 -1 87 1 108 2 26 161 31 190 6z
m531 7 c0 -5 -5 -10 -11 -10 -5 0 -7 5 -4 10 3 6 8 10 11 10 2 0 4 -4 4 -10z
m-5976 -6 c21 -8 20 -24 -1 -40 -26 -19 -33 -17 -33 9 0 34 8 41 34 31z m4392
-24 c0 -20 -7 -25 -19 -13 -4 3 -2 12 4 20 15 17 15 17 15 -7z m154 -5 c0 -28
-7 -29 -82 -19 -38 5 -45 9 -41 25 5 16 15 19 64 19 56 0 59 -1 59 -25z m1000
10 c7 -8 8 -15 2 -15 -5 0 -15 7 -22 15 -7 8 -8 15 -2 15 5 0 15 -7 22 -15z
m-1580 -5 c0 -5 -2 -10 -4 -10 -3 0 -8 5 -11 10 -3 6 -1 10 4 10 6 0 11 -4 11
-10z m1176 -12 l19 -23 -25 20 c-14 11 -27 21 -29 22 -2 2 0 3 6 3 5 0 18 -10
29 -22z m467 15 c-7 -2 -21 -2 -30 0 -10 3 -4 5 12 5 17 0 24 -2 18 -5z m60 0
c-7 -2 -21 -2 -30 0 -10 3 -4 5 12 5 17 0 24 -2 18 -5z m162 -32 c0 -42 -22
-54 -27 -14 -2 22 -9 29 -36 34 -55 11 -50 20 8 17 l55 -3 0 -34z m-6825 10
c0 -11 -6 -22 -12 -24 -7 -3 -3 -6 10 -6 27 -1 29 -17 3 -24 -31 -8 -45 7 -32
32 7 12 9 26 6 31 -3 6 1 10 9 10 9 0 16 -8 16 -19z m1070 9 c0 -5 -5 -10 -11
-10 -5 0 -7 5 -4 10 3 6 8 10 11 10 2 0 4 -4 4 -10z m1780 0 c0 -5 -2 -10 -4
-10 -3 0 -8 5 -11 10 -3 6 -1 10 4 10 6 0 11 -4 11 -10z m905 0 c-4 -7 3 -8
21 -4 19 5 25 4 20 -5 -4 -6 -17 -11 -28 -11 -20 0 -21 -1 -3 -20 18 -20 18
-20 -13 -9 -18 6 -30 14 -29 17 2 4 7 15 10 25 4 9 11 17 17 17 6 0 8 -5 5
-10z m505 -5 c-7 -9 -15 -13 -17 -11 -7 7 7 26 19 26 6 0 6 -6 -2 -15z m1560
11 c0 -3 -4 -8 -10 -11 -5 -3 -10 -1 -10 4 0 6 5 11 10 11 6 0 10 -2 10 -4z
m379 -28 c17 -17 31 -38 31 -46 0 -9 -8 -4 -21 12 -13 17 -27 25 -36 21 -10
-3 -13 -1 -10 9 3 7 0 19 -6 25 -8 8 -8 11 0 11 6 0 25 -14 42 -32z m724 18
c4 -10 1 -13 -8 -9 -8 3 -12 9 -9 14 7 12 11 11 17 -5z m-5903 -41 c0 -33 -2
-35 -33 -35 -49 0 -53 11 -15 42 43 36 48 35 48 -7z m5563 28 c-7 -2 -19 -2
-25 0 -7 3 -2 5 12 5 14 0 19 -2 13 -5z m195 -25 c-4 -25 -26 -30 -93 -19
l-50 9 65 1 c75 1 72 18 -5 24 -44 3 -42 4 18 5 65 2 68 1 65 -20z m112 18 c0
-2 -8 -10 -17 -17 -16 -13 -17 -12 -4 4 13 16 21 21 21 13z m-4020 -21 c0 -8
-4 -15 -10 -15 -5 0 -7 7 -4 15 4 8 8 15 10 15 2 0 4 -7 4 -15z m1461 -4 c16
-15 17 -19 5 -24 -15 -6 -50 25 -39 36 9 10 12 9 34 -12z m1819 -30 c-1 -13
-3 -13 -15 3 -19 26 -19 42 0 26 8 -7 15 -20 15 -29z m-4435 19 c3 -5 1 -10
-4 -10 -6 0 -11 5 -11 10 0 6 2 10 4 10 3 0 8 -4 11 -10z m2325 -5 c7 -8 8
-15 2 -15 -5 0 -15 7 -22 15 -7 8 -8 15 -2 15 5 0 15 -7 22 -15z m1404 3 c-3
-4 -9 -8 -15 -8 -5 0 -9 4 -9 8 0 5 7 9 15 9 8 0 12 -4 9 -9z m1143 6 c-3 -3
-12 -4 -19 -1 -8 3 -5 6 6 6 11 1 17 -2 13 -5z m-2302 -42 c-8 -9 -25 20 -18
31 3 5 10 2 15 -7 6 -10 7 -20 3 -24z m1368 31 c-7 -2 -19 -2 -25 0 -7 3 -2 5
12 5 14 0 19 -2 13 -5z m-5578 -13 c3 -5 -1 -10 -10 -10 -9 0 -13 5 -10 10 3
6 8 10 10 10 2 0 7 -4 10 -10z m2843 -5 c3 -3 -9 -5 -27 -5 -29 0 -31 -2 -25
-25 4 -15 2 -25 -5 -25 -6 0 -11 7 -11 16 0 9 -6 14 -12 11 -7 -2 -12 -10 -10
-16 1 -6 -2 -11 -8 -11 -14 0 -12 37 3 43 7 3 4 6 -6 6 -10 1 -16 5 -13 10 6
9 105 6 114 -4z m142 -5 c19 -12 -86 -12 -115 0 -14 6 -3 9 40 9 33 0 67 -4
75 -9z m1300 0 c0 -13 -108 -120 -121 -120 -19 0 -8 16 48 72 58 57 73 67 73
48z m2168 -10 c23 -1 24 -2 10 -11 -22 -12 -62 6 -51 24 5 8 8 8 11 -1 2 -7
16 -12 30 -12z m-5453 0 c-3 -5 -17 -10 -31 -10 -13 0 -24 5 -24 10 0 6 14 10
31 10 17 0 28 -4 24 -10z m2055 0 c0 -5 8 -10 19 -10 10 0 23 -6 29 -12 8 -10
-21 -11 -144 -4 -85 5 -154 13 -154 17 0 4 55 5 123 3 87 -4 118 -2 107 5 -13
9 -13 11 3 11 9 0 17 -4 17 -10z m88 -10 c12 -20 12 -21 -13 -4 -28 18 -31 24
-12 24 7 0 18 -9 25 -20z m36 4 c9 -24 7 -27 -9 -10 -17 17 -19 26 -6 26 5 0
12 -7 15 -16z m1043 7 c15 13 15 12 5 -8 -12 -22 -56 -57 -101 -80 -31 -17
-33 -16 -19 7 7 11 18 18 25 16 6 -3 17 3 25 12 12 15 11 16 -4 3 -16 -12 -18
-11 -18 3 0 9 4 16 10 16 5 0 6 8 3 17 -5 12 -2 15 10 10 10 -4 17 -2 17 5 0
7 5 6 15 -2 12 -10 18 -10 32 1z m-3582 -11 c4 -6 -7 -10 -24 -10 -17 0 -31 5
-31 10 0 6 11 10 24 10 14 0 28 -4 31 -10z m154 0 c42 0 71 -4 65 -8 -18 -11
-204 -2 -204 10 0 6 12 8 31 4 17 -3 66 -6 108 -6z m1914 3 c-7 -2 -21 -2 -30
0 -10 3 -4 5 12 5 17 0 24 -2 18 -5z m787 -19 c0 -23 -29 -29 -45 -8 -12 17
-11 20 8 25 27 7 37 2 37 -17z m3220 16 c0 -5 -4 -10 -10 -10 -5 0 -10 5 -10
10 0 6 5 10 10 10 6 0 10 -4 10 -10z m-5810 -4 c0 -3 -4 -8 -10 -11 -5 -3 -10
-1 -10 4 0 6 5 11 10 11 6 0 10 -2 10 -4z m2775 -8 c16 1 17 -1 5 -8 -8 -5
-12 -10 -7 -10 4 0 0 -14 -9 -32 -12 -22 -15 -48 -12 -91 4 -52 2 -60 -14 -65
-22 -5 -22 -11 -2 -42 l16 -25 -22 25 c-12 14 -29 34 -36 45 -13 17 -16 18
-24 5 -5 -8 -7 -21 -4 -29 3 -10 -3 -8 -17 5 -22 19 -22 19 -15 -1 6 -16 1
-14 -23 9 -17 17 -31 34 -31 40 0 6 5 5 12 -2 7 -7 19 -12 28 -11 10 0 11 2 3
6 -15 5 -17 64 -4 79 14 14 40 94 31 94 -5 0 -16 3 -26 7 -13 5 -15 3 -9 -7 5
-9 4 -11 -4 -6 -28 17 4 26 72 20 40 -4 81 -7 92 -6z m155 -3 c-7 -8 -17 -12
-22 -9 -6 4 -5 10 3 15 22 14 33 10 19 -6z m2827 9 c-3 -3 -12 -4 -19 -1 -8 3
-5 6 6 6 11 1 17 -2 13 -5z m-2754 -11 c3 -5 1 -17 -4 -28 -6 -17 -8 -17 -8
-2 -1 9 -5 17 -11 17 -5 0 -10 5 -10 10 0 12 27 14 33 3z m1816 -37 c-9 -8
-10 -7 -5 7 3 10 7 24 7 30 1 7 3 4 6 -7 3 -10 -1 -23 -8 -30z m-1904 4 c3 -5
-1 -10 -10 -10 -9 0 -13 5 -10 10 3 6 8 10 10 10 2 0 7 -4 10 -10z m270 -10
c-3 -5 -12 -10 -18 -10 -7 0 -6 4 3 10 19 12 23 12 15 0z m2735 -14 c0 -8 -4
-17 -9 -21 -6 -3 -9 4 -8 15 1 23 17 28 17 6z m-3608 -5 c8 12 9 12 5 -1 -2
-8 -12 -15 -22 -15 -10 0 -21 7 -23 15 -5 13 -3 13 12 1 15 -13 19 -13 28 0z
m-2912 -5 c0 -3 -4 -8 -10 -11 -5 -3 -10 -1 -10 4 0 6 5 11 10 11 6 0 10 -2
10 -4z m3450 0 c0 -2 -8 -10 -17 -17 -16 -13 -17 -12 -4 4 13 16 21 21 21 13z
m-243 -23 c-8 -9 -20 -12 -26 -9 -19 12 -12 21 15 23 24 1 25 -1 11 -14z m626
0 c-5 -12 -3 -14 8 -8 8 5 11 5 6 -1 -5 -5 -12 -8 -15 -7 -4 1 -13 -3 -19 -9
-19 -16 -16 7 3 26 20 20 25 20 17 -1z m-738 -13 c25 -10 70 -48 63 -55 -2 -3
-13 3 -24 13 -29 28 -54 34 -70 17 -13 -12 -11 -16 13 -28 15 -8 35 -12 43
-10 9 3 11 1 4 -4 -7 -6 -7 -15 1 -30 7 -13 15 -20 18 -16 4 3 7 1 7 -5 0 -6
-7 -15 -16 -20 -11 -6 -13 -11 -5 -16 6 -4 11 -2 11 3 0 6 3 11 8 11 10 0 116
-140 110 -146 -3 -2 -13 7 -22 22 l-18 26 -26 -24 -27 -23 23 26 c21 24 22 30
10 48 -14 23 -28 27 -28 9 -1 -7 -9 -3 -19 10 -11 12 -21 22 -24 22 -6 0 10
-54 24 -82 13 -25 -11 -28 -48 -6 -31 19 -33 19 -27 1 5 -13 4 -15 -5 -7 -6 6
-9 18 -6 27 8 19 33 12 58 -17 18 -21 18 -21 8 0 -15 31 -38 46 -59 39 -25 -7
-34 -41 -15 -56 8 -7 13 -24 12 -38 -2 -14 3 -37 11 -51 8 -14 14 -28 15 -32
0 -4 7 -15 15 -25 19 -23 15 -64 -6 -56 -10 4 -12 0 -7 -13 3 -11 -16 2 -45
29 -28 26 -60 47 -71 47 -23 0 -31 18 -31 69 0 45 34 87 46 57 5 -13 9 -14 20
-5 11 9 14 8 14 -4 0 -9 5 -19 12 -23 6 -4 8 -3 4 4 -3 5 0 12 6 15 7 2 -4 12
-24 22 -21 11 -38 23 -38 28 0 15 -33 36 -57 37 -40 0 -53 -10 -46 -38 5 -22
3 -24 -13 -19 -17 6 -18 6 -2 -6 11 -9 14 -18 7 -28 -8 -12 -10 -12 -20 1 -9
13 -10 13 -6 -2 3 -9 -1 -22 -10 -30 -14 -12 -15 -7 -9 46 5 33 19 84 32 114
13 30 24 60 24 68 0 7 15 25 34 39 26 20 39 24 57 17 27 -10 59 -5 59 9 0 5
-11 9 -24 9 -14 0 -28 5 -31 10 -3 6 -11 10 -16 10 -6 0 -7 -6 -3 -12 6 -10 4
-10 -8 0 -11 9 -18 10 -23 2 -3 -5 -11 -10 -18 -10 -21 0 13 24 51 36 36 12
87 9 127 -6z m3423 -2 c-3 -7 4 -21 14 -32 25 -27 23 -36 -8 -36 -14 0 -23 -4
-19 -10 3 -5 2 -10 -3 -10 -5 0 -12 11 -14 24 -4 18 -1 23 10 18 12 -4 14 0 9
20 -4 14 -4 28 0 32 10 10 15 7 11 -6z m-3098 -2 c0 -2 -8 -10 -17 -17 -16
-13 -17 -12 -4 4 13 16 21 21 21 13z m-575 -16 c3 -5 -1 -10 -9 -10 -9 0 -16
5 -16 10 0 6 4 10 9 10 6 0 13 -4 16 -10z m-34 -53 l-24 -22 19 27 c10 14 21
24 23 22 3 -3 -6 -15 -18 -27z m81 11 c-7 -7 -12 -8 -12 -2 0 14 12 26 19 19
2 -3 -1 -11 -7 -17z m489 5 c1 -17 2 -17 6 0 4 13 15 17 58 17 33 0 57 -5 65
-14 6 -8 24 -16 38 -18 21 -2 28 -9 30 -30 l3 -26 -82 -4 -82 -3 -28 35 c-29
35 -37 60 -19 60 6 0 11 -8 11 -17z m-673 -8 c-2 -5 -11 -9 -22 -7 -14 2 -17
-3 -13 -18 3 -11 1 -22 -4 -25 -11 -7 -23 40 -14 55 8 14 57 9 53 -5z m4192
-41 c0 -2 -12 -4 -26 -4 -14 0 -23 4 -20 9 6 8 46 4 46 -5z m-4070 -67 c0 -2
-10 -12 -22 -23 l-23 -19 19 23 c18 21 26 27 26 19z m520 -113 c0 -5 -9 2 -19
16 -19 24 -20 24 -40 6 -25 -23 -28 -10 -4 16 15 17 15 19 0 36 -10 10 -17 22
-17 27 0 4 18 -15 40 -43 22 -27 40 -54 40 -58z m-670 62 c0 -2 -8 -10 -17
-17 -16 -13 -17 -12 -4 4 13 16 21 21 21 13z m100 1 c0 -2 -10 -13 -23 -25
l-24 -22 -19 22 -19 23 21 -18 c20 -16 22 -16 39 3 17 19 25 24 25 17z m148
-4 c-10 -2 -18 -14 -19 -26 0 -12 -3 -16 -6 -9 -8 20 5 42 24 41 17 -1 17 -2
1 -6z m-297 -20 c13 -16 12 -17 -3 -4 -17 13 -22 21 -14 21 2 0 10 -8 17 -17z
m183 1 c3 -8 2 -12 -4 -9 -6 3 -10 10 -10 16 0 14 7 11 14 -7z m148 -26 c-7
-7 -12 -8 -12 -2 0 14 12 26 19 19 2 -3 -1 -11 -7 -17z m-39 -40 c-11 -94 -11
-94 -55 -107 -23 -7 -54 -26 -70 -43 l-28 -30 6 33 c9 45 40 96 73 117 14 9
35 27 45 39 27 31 33 29 29 -9z m-198 -44 c-7 -38 -9 -39 -114 -28 l-62 7 37
38 c21 22 41 39 45 39 4 0 6 -19 3 -42 l-4 -43 48 49 c51 52 60 48 47 -20z
m-102 -61 c-7 -2 -21 -2 -30 0 -10 3 -4 5 12 5 17 0 24 -2 18 -5z m134 -9 c-3
-3 -12 -4 -19 -1 -8 3 -5 6 6 6 11 1 17 -2 13 -5z m-16 -22 c-7 -2 -18 1 -23
6 -8 8 -4 9 13 5 13 -4 18 -8 10 -11z m134 -1 c-3 -6 -11 -11 -17 -11 -6 0 -6
6 2 15 14 17 26 13 15 -4z m608 -8 c-7 -2 -19 -2 -25 0 -7 3 -2 5 12 5 14 0
19 -2 13 -5z m94 1 c-3 -3 -12 -4 -19 -1 -8 3 -5 6 6 6 11 1 17 -2 13 -5z
m-757 -39 c0 -9 -6 -12 -15 -9 -8 4 -12 10 -9 15 8 14 24 10 24 -6z m240 -135
c0 -5 -5 -10 -11 -10 -5 0 -7 5 -4 10 3 6 8 10 11 10 2 0 4 -4 4 -10z m55 -60
c3 -5 -1 -10 -10 -10 -9 0 -13 5 -10 10 3 6 8 10 10 10 2 0 7 -4 10 -10z m105
-20 c6 -11 7 -20 2 -20 -6 0 -12 9 -15 20 -3 11 -3 20 -1 20 2 0 8 -9 14 -20z
m2883 -1707 c-7 -2 -19 -2 -25 0 -7 3 -2 5 12 5 14 0 19 -2 13 -5z m474 -19
c-3 -3 -12 -4 -19 -1 -8 3 -5 6 6 6 11 1 17 -2 13 -5z m260 -10 c-3 -3 -12 -4
-19 -1 -8 3 -5 6 6 6 11 1 17 -2 13 -5z"/>
<path d="M4672 2840 c-8 -16 -11 -34 -7 -40 9 -15 25 -2 18 16 -4 12 0 14 23
9 26 -6 27 -5 12 8 -10 8 -18 19 -18 26 0 21 -15 11 -28 -19z"/>
<path d="M4725 2850 c14 -16 45 -18 45 -3 0 3 -7 2 -16 -1 -11 -4 -15 -2 -11
7 3 8 -3 14 -15 14 -19 2 -19 1 -3 -17z"/>
<path d="M4760 2820 c-13 -9 -13 -10 0 -10 8 0 22 5 30 10 13 9 13 10 0 10 -8
0 -22 -5 -30 -10z"/>
<path d="M4640 2739 c0 -5 5 -7 10 -4 6 3 10 8 10 11 0 2 -4 4 -10 4 -5 0 -10
-5 -10 -11z"/>
<path d="M4704 2690 c-12 -5 -25 -14 -29 -21 -5 -7 -3 -9 6 -5 8 3 22 9 32 12
9 4 17 10 17 15 0 5 -1 9 -2 8 -2 0 -13 -4 -24 -9z"/>
<path d="M1925 2830 c-3 -5 1 -10 10 -10 9 0 13 5 10 10 -3 6 -8 10 -10 10 -2
0 -7 -4 -10 -10z"/>
<path d="M3973 2713 c9 -2 23 -2 30 0 6 3 -1 5 -18 5 -16 0 -22 -2 -12 -5z"/>
<path d="M4025 2560 c3 -5 8 -10 11 -10 2 0 4 5 4 10 0 6 -5 10 -11 10 -5 0
-7 -4 -4 -10z"/>
<path d="M6453 2687 c-3 -6 -1 -7 6 -3 6 4 14 0 19 -11 10 -26 27 -25 28 2 1
17 -4 23 -22 23 -14 0 -27 -5 -31 -11z"/>
<path d="M6620 2640 c-8 -5 -11 -12 -7 -16 4 -4 13 -2 19 4 15 15 7 24 -12 12z"/>
<path d="M6015 2720 c3 -5 8 -10 11 -10 2 0 4 5 4 10 0 6 -5 10 -11 10 -5 0
-7 -4 -4 -10z"/>
<path d="M4190 2421 c0 -5 9 -7 20 -4 11 3 20 7 20 9 0 2 -9 4 -20 4 -11 0
-20 -4 -20 -9z"/>
<path d="M3895 2360 c3 -5 11 -10 16 -10 6 0 7 5 4 10 -3 6 -11 10 -16 10 -6
0 -7 -4 -4 -10z"/>
<path d="M3990 2045 c24 -25 42 -27 22 -2 -7 8 -10 16 -7 18 2 3 -5 6 -17 6
-20 2 -20 1 2 -22z"/>
<path d="M7178 5233 c18 -2 45 -2 60 0 15 2 0 4 -33 4 -33 0 -45 -2 -27 -4z"/>
<path d="M4440 3215 c-7 -8 -21 -15 -31 -15 -11 0 -19 -4 -19 -10 0 -5 -16
-13 -35 -19 -38 -10 -72 -38 -60 -49 3 -4 12 0 18 9 7 9 23 20 37 24 14 4 39
16 56 26 38 23 68 16 60 -15 -5 -20 -5 -21 9 -2 16 22 19 37 8 35 -33 -5 -46
16 -15 24 14 4 14 5 1 6 -9 0 -22 -6 -29 -14z"/>
<path d="M4365 3135 c-38 -24 -75 -48 -82 -54 -7 -6 -15 -11 -18 -11 -10 0
-164 -94 -160 -98 4 -5 89 41 93 51 2 4 11 7 20 7 10 1 35 14 57 30 58 42 145
90 145 79 0 -4 -9 -26 -20 -47 -11 -21 -22 -62 -23 -91 -2 -32 -9 -56 -18 -62
-20 -12 -29 -11 -29 4 0 9 -2 9 -8 0 -4 -6 -21 -13 -37 -15 -26 -2 -31 1 -40
26 -12 35 -29 43 -47 21 -41 -51 -48 -55 -80 -49 -25 4 -29 3 -18 -5 8 -6 49
-10 90 -10 64 1 77 -2 91 -20 10 -12 19 -27 21 -33 7 -21 41 0 35 22 -4 14 0
20 12 20 11 0 23 18 35 53 18 47 20 50 26 27 6 -21 8 -22 15 -8 8 21 -1 38
-21 38 -19 0 -18 16 1 24 8 3 15 0 15 -6 0 -6 2 -9 5 -7 8 8 -7 49 -16 43 -15
-9 -10 13 5 25 8 6 16 22 19 34 2 12 8 30 12 40 10 25 -2 21 -80 -28z m-140
-175 c3 -5 1 -10 -4 -10 -6 0 -11 5 -11 10 0 6 2 10 4 10 3 0 8 -4 11 -10z"/>
<path d="M4247 3100 c-14 -11 -28 -20 -31 -20 -3 0 -29 -16 -56 -35 -28 -19
-50 -32 -50 -29 0 4 -6 2 -12 -3 -12 -9 -49 -21 -90 -29 -24 -5 -34 17 -15 31
22 16 22 26 0 18 -42 -15 -45 -25 -17 -55 15 -15 23 -28 17 -28 -6 0 -9 -9 -5
-22 4 -18 2 -20 -14 -14 -10 4 -15 3 -10 -1 12 -12 89 -13 104 -1 15 13 -4 42
-20 31 -6 -3 -9 0 -6 8 2 7 56 43 119 81 62 37 115 72 117 78 5 15 -2 12 -31
-10z"/>
<path d="M4444 3084 c-3 -19 -2 -40 3 -45 6 -6 10 7 10 36 1 54 -4 58 -13 9z"/>
<path d="M3747 3070 c9 -11 19 -17 21 -15 6 6 -18 35 -29 35 -5 0 -1 -9 8 -20z"/>
<path d="M5390 3060 c9 -17 7 -22 -16 -30 -33 -13 -28 -20 9 -13 15 3 27 11
27 18 0 21 -11 45 -21 45 -6 0 -5 -9 1 -20z"/>
<path d="M4015 3010 c-3 -5 -1 -10 4 -10 6 0 11 5 11 10 0 6 -2 10 -4 10 -3 0
-8 -4 -11 -10z"/>
<path d="M730 3000 c0 -5 5 -10 11 -10 5 0 7 5 4 10 -3 6 -8 10 -11 10 -2 0
-4 -4 -4 -10z"/>
<path d="M1097 2986 c-8 -21 2 -26 29 -14 18 8 21 14 12 20 -19 12 -35 10 -41
-6z"/>
<path d="M5230 2984 c0 -8 5 -12 10 -9 6 3 10 10 10 16 0 5 -4 9 -10 9 -5 0
-10 -7 -10 -16z"/>
<path d="M1010 2950 c-9 -6 -10 -10 -3 -10 6 0 15 5 18 10 8 12 4 12 -15 0z"/>
<path d="M1110 2950 c0 -5 5 -10 10 -10 6 0 10 5 10 10 0 6 -4 10 -10 10 -5 0
-10 -4 -10 -10z"/>
<path d="M1341 2948 c-1 -12 6 -18 20 -18 11 0 17 5 14 10 -4 6 -10 8 -15 5
-4 -3 -11 1 -13 7 -3 8 -6 6 -6 -4z"/>
<path d="M4397 2934 c-20 -20 -5 -34 36 -34 29 0 38 3 27 9 -8 6 -18 7 -23 4
-4 -3 -14 2 -20 12 -7 9 -16 13 -20 9z"/>
<path d="M4505 2930 c3 -5 8 -10 11 -10 2 0 4 5 4 10 0 6 -5 10 -11 10 -5 0
-7 -4 -4 -10z"/>
<path d="M3070 2921 c0 -5 11 -8 24 -7 13 0 22 4 19 9 -6 10 -43 9 -43 -2z"/>
<path d="M3155 2920 c-3 -5 -1 -10 4 -10 6 0 11 5 11 10 0 6 -2 10 -4 10 -3 0
-8 -4 -11 -10z"/>
<path d="M3525 2919 c-10 -15 3 -25 16 -12 7 7 7 13 1 17 -6 3 -14 1 -17 -5z"/>
<path d="M1335 2910 c3 -5 19 -10 35 -10 27 0 28 -2 26 -40 -2 -22 1 -40 5
-40 5 0 9 9 9 19 0 11 10 27 22 35 l22 16 -23 0 c-16 0 -21 4 -17 15 4 12 -4
15 -40 15 -28 0 -43 -4 -39 -10z"/>
<path d="M1580 2911 c0 -6 -15 -11 -32 -13 -33 -3 -33 -3 -10 -16 21 -12 26
-11 43 7 21 23 24 31 9 31 -5 0 -10 -4 -10 -9z"/>
<path d="M3440 2912 c0 -6 4 -13 10 -17 5 -3 7 -12 3 -20 -3 -8 0 -15 5 -15
20 0 20 15 1 39 -10 13 -19 18 -19 13z"/>
<path d="M3901 2870 c10 -6 40 -6 75 -1 l59 9 -75 0 c-52 1 -70 -2 -59 -8z"/>
<path d="M4135 2870 c-30 -8 -30 -8 8 -9 23 -1 36 3 32 9 -3 6 -7 9 -8 9 -1
-1 -15 -5 -32 -9z"/>
<path d="M5085 2860 c-7 -11 2 -30 13 -30 4 0 8 9 9 20 2 21 -11 27 -22 10z"/>
<path d="M4531 2834 c0 -11 3 -14 6 -6 3 7 2 16 -1 19 -3 4 -6 -2 -5 -13z"/>
<path d="M4927 2723 c-4 -3 -7 -11 -7 -17 0 -6 5 -5 12 2 6 6 9 14 7 17 -3 3
-9 2 -12 -2z"/>
<path d="M4937 2673 c-4 -3 -7 -11 -7 -17 0 -6 5 -5 12 2 6 6 9 14 7 17 -3 3
-9 2 -12 -2z"/>
<path d="M323 2643 c15 -2 37 -2 50 0 12 2 0 4 -28 4 -27 0 -38 -2 -22 -4z"/>
<path d="M4746 2193 c-13 -14 -5 -72 14 -94 l20 -24 -15 30 c-18 36 -19 72 -3
77 8 3 9 6 1 11 -5 4 -13 4 -17 0z"/>
<path d="M3470 1280 l0 -50 58 0 c31 0 101 -3 155 -7 l97 -6 0 45 c0 55 -2 56
-137 58 -70 1 -93 -2 -93 -12 0 -8 -5 -6 -11 5 -6 10 -22 17 -39 17 -29 0 -30
-1 -30 -50z"/>
<path d="M27 300 c17 -4 96 -10 175 -13 88 -3 124 -2 93 3 -65 10 -310 20
-268 10z"/>
<path d="M353 283 c3 -5 56 -10 119 -11 62 -1 158 -4 213 -7 69 -3 87 -2 60 4
-57 12 -398 24 -392 14z"/>
<path d="M1440 242 c0 -4 12 -7 28 -7 15 0 115 -3 222 -7 107 -4 177 -3 155 2
-51 10 -405 20 -405 12z"/>
<path d="M6247 104 c-14 -14 6 -24 49 -24 24 0 44 5 44 10 0 6 -13 10 -29 10
-16 0 -36 2 -43 5 -8 3 -17 3 -21 -1z"/>
</g>
</svg>
